<mxfile host="app.diagrams.net" modified="2021-06-27T12:57:28.653Z" agent="5.0 (Windows NT 10.0; Win64; x64) AppleWebKit/537.36 (KHTML, like Gecko) Chrome/91.0.4472.124 Safari/537.36" etag="DVGiVW7PH-cOOygEGDvw" version="14.8.1" type="github">
  <diagram id="_alh5oK-WSTdn3eGGzwk" name="Page-1">
    <mxGraphModel dx="852" dy="1634" grid="1" gridSize="10" guides="1" tooltips="1" connect="1" arrows="1" fold="1" page="1" pageScale="1" pageWidth="827" pageHeight="1169" math="0" shadow="0">
      <root>
        <mxCell id="0" />
        <mxCell id="1" parent="0" />
        <mxCell id="9ICHdwUlCjqRGrEa40F--32" value="Физический уровень" style="text;html=1;strokeColor=#d79b00;fillColor=#ffe6cc;align=center;verticalAlign=middle;whiteSpace=wrap;rounded=0;" vertex="1" parent="1">
          <mxGeometry x="30" y="-540" width="190" height="20" as="geometry" />
        </mxCell>
        <mxCell id="9ICHdwUlCjqRGrEa40F--157" value="Employee" style="shape=table;startSize=30;container=1;collapsible=1;childLayout=tableLayout;fixedRows=1;rowLines=0;fontStyle=1;align=center;resizeLast=1;" vertex="1" parent="1">
          <mxGeometry x="70" y="-1020" width="210" height="150" as="geometry" />
        </mxCell>
        <mxCell id="9ICHdwUlCjqRGrEa40F--158" value="" style="shape=partialRectangle;collapsible=0;dropTarget=0;pointerEvents=0;fillColor=none;top=0;left=0;bottom=1;right=0;points=[[0,0.5],[1,0.5]];portConstraint=eastwest;" vertex="1" parent="9ICHdwUlCjqRGrEa40F--157">
          <mxGeometry y="30" width="210" height="30" as="geometry" />
        </mxCell>
        <mxCell id="9ICHdwUlCjqRGrEa40F--159" value="" style="shape=partialRectangle;connectable=0;fillColor=none;top=0;left=0;bottom=0;right=0;fontStyle=1;overflow=hidden;" vertex="1" parent="9ICHdwUlCjqRGrEa40F--158">
          <mxGeometry width="30" height="30" as="geometry" />
        </mxCell>
        <mxCell id="9ICHdwUlCjqRGrEa40F--160" value="" style="shape=partialRectangle;connectable=0;fillColor=none;top=0;left=0;bottom=0;right=0;align=left;spacingLeft=6;fontStyle=5;overflow=hidden;" vertex="1" parent="9ICHdwUlCjqRGrEa40F--158">
          <mxGeometry x="30" width="180" height="30" as="geometry" />
        </mxCell>
        <mxCell id="9ICHdwUlCjqRGrEa40F--161" value="" style="shape=partialRectangle;collapsible=0;dropTarget=0;pointerEvents=0;fillColor=none;top=0;left=0;bottom=0;right=0;points=[[0,0.5],[1,0.5]];portConstraint=eastwest;" vertex="1" parent="9ICHdwUlCjqRGrEa40F--157">
          <mxGeometry y="60" width="210" height="30" as="geometry" />
        </mxCell>
        <mxCell id="9ICHdwUlCjqRGrEa40F--162" value="" style="shape=partialRectangle;connectable=0;fillColor=none;top=0;left=0;bottom=0;right=0;editable=1;overflow=hidden;" vertex="1" parent="9ICHdwUlCjqRGrEa40F--161">
          <mxGeometry width="30" height="30" as="geometry" />
        </mxCell>
        <mxCell id="9ICHdwUlCjqRGrEa40F--163" value="" style="shape=partialRectangle;connectable=0;fillColor=none;top=0;left=0;bottom=0;right=0;align=left;spacingLeft=6;overflow=hidden;" vertex="1" parent="9ICHdwUlCjqRGrEa40F--161">
          <mxGeometry x="30" width="180" height="30" as="geometry" />
        </mxCell>
        <mxCell id="9ICHdwUlCjqRGrEa40F--164" value="" style="shape=partialRectangle;collapsible=0;dropTarget=0;pointerEvents=0;fillColor=none;top=0;left=0;bottom=0;right=0;points=[[0,0.5],[1,0.5]];portConstraint=eastwest;" vertex="1" parent="9ICHdwUlCjqRGrEa40F--157">
          <mxGeometry y="90" width="210" height="30" as="geometry" />
        </mxCell>
        <mxCell id="9ICHdwUlCjqRGrEa40F--165" value="" style="shape=partialRectangle;connectable=0;fillColor=none;top=0;left=0;bottom=0;right=0;editable=1;overflow=hidden;" vertex="1" parent="9ICHdwUlCjqRGrEa40F--164">
          <mxGeometry width="30" height="30" as="geometry" />
        </mxCell>
        <mxCell id="9ICHdwUlCjqRGrEa40F--166" value="" style="shape=partialRectangle;connectable=0;fillColor=none;top=0;left=0;bottom=0;right=0;align=left;spacingLeft=6;overflow=hidden;" vertex="1" parent="9ICHdwUlCjqRGrEa40F--164">
          <mxGeometry x="30" width="180" height="30" as="geometry" />
        </mxCell>
        <mxCell id="9ICHdwUlCjqRGrEa40F--167" value="" style="shape=partialRectangle;collapsible=0;dropTarget=0;pointerEvents=0;fillColor=none;top=0;left=0;bottom=0;right=0;points=[[0,0.5],[1,0.5]];portConstraint=eastwest;" vertex="1" parent="9ICHdwUlCjqRGrEa40F--157">
          <mxGeometry y="120" width="210" height="20" as="geometry" />
        </mxCell>
        <mxCell id="9ICHdwUlCjqRGrEa40F--168" value="" style="shape=partialRectangle;connectable=0;fillColor=none;top=0;left=0;bottom=0;right=0;editable=1;overflow=hidden;" vertex="1" parent="9ICHdwUlCjqRGrEa40F--167">
          <mxGeometry width="30" height="20" as="geometry" />
        </mxCell>
        <mxCell id="9ICHdwUlCjqRGrEa40F--169" value="" style="shape=partialRectangle;connectable=0;fillColor=none;top=0;left=0;bottom=0;right=0;align=left;spacingLeft=6;overflow=hidden;" vertex="1" parent="9ICHdwUlCjqRGrEa40F--167">
          <mxGeometry x="30" width="180" height="20" as="geometry" />
        </mxCell>
        <mxCell id="9ICHdwUlCjqRGrEa40F--170" value="Tasks" style="shape=table;startSize=30;container=1;collapsible=1;childLayout=tableLayout;fixedRows=1;rowLines=0;fontStyle=1;align=center;resizeLast=1;" vertex="1" parent="1">
          <mxGeometry x="440" y="-1040" width="200" height="160" as="geometry" />
        </mxCell>
        <mxCell id="9ICHdwUlCjqRGrEa40F--171" value="" style="shape=partialRectangle;collapsible=0;dropTarget=0;pointerEvents=0;fillColor=none;top=0;left=0;bottom=1;right=0;points=[[0,0.5],[1,0.5]];portConstraint=eastwest;" vertex="1" parent="9ICHdwUlCjqRGrEa40F--170">
          <mxGeometry y="30" width="200" height="30" as="geometry" />
        </mxCell>
        <mxCell id="9ICHdwUlCjqRGrEa40F--172" value="" style="shape=partialRectangle;connectable=0;fillColor=none;top=0;left=0;bottom=0;right=0;fontStyle=1;overflow=hidden;" vertex="1" parent="9ICHdwUlCjqRGrEa40F--171">
          <mxGeometry width="30" height="30" as="geometry" />
        </mxCell>
        <mxCell id="9ICHdwUlCjqRGrEa40F--173" value="" style="shape=partialRectangle;connectable=0;fillColor=none;top=0;left=0;bottom=0;right=0;align=left;spacingLeft=6;fontStyle=5;overflow=hidden;" vertex="1" parent="9ICHdwUlCjqRGrEa40F--171">
          <mxGeometry x="30" width="170" height="30" as="geometry" />
        </mxCell>
        <mxCell id="9ICHdwUlCjqRGrEa40F--177" value="" style="shape=partialRectangle;collapsible=0;dropTarget=0;pointerEvents=0;fillColor=none;top=0;left=0;bottom=0;right=0;points=[[0,0.5],[1,0.5]];portConstraint=eastwest;" vertex="1" parent="9ICHdwUlCjqRGrEa40F--170">
          <mxGeometry y="60" width="200" height="30" as="geometry" />
        </mxCell>
        <mxCell id="9ICHdwUlCjqRGrEa40F--178" value="" style="shape=partialRectangle;connectable=0;fillColor=none;top=0;left=0;bottom=0;right=0;editable=1;overflow=hidden;" vertex="1" parent="9ICHdwUlCjqRGrEa40F--177">
          <mxGeometry width="30" height="30" as="geometry" />
        </mxCell>
        <mxCell id="9ICHdwUlCjqRGrEa40F--179" value="" style="shape=partialRectangle;connectable=0;fillColor=none;top=0;left=0;bottom=0;right=0;align=left;spacingLeft=6;overflow=hidden;" vertex="1" parent="9ICHdwUlCjqRGrEa40F--177">
          <mxGeometry x="30" width="170" height="30" as="geometry" />
        </mxCell>
        <mxCell id="9ICHdwUlCjqRGrEa40F--180" value="" style="shape=partialRectangle;collapsible=0;dropTarget=0;pointerEvents=0;fillColor=none;top=0;left=0;bottom=0;right=0;points=[[0,0.5],[1,0.5]];portConstraint=eastwest;" vertex="1" parent="9ICHdwUlCjqRGrEa40F--170">
          <mxGeometry y="90" width="200" height="30" as="geometry" />
        </mxCell>
        <mxCell id="9ICHdwUlCjqRGrEa40F--181" value="" style="shape=partialRectangle;connectable=0;fillColor=none;top=0;left=0;bottom=0;right=0;editable=1;overflow=hidden;" vertex="1" parent="9ICHdwUlCjqRGrEa40F--180">
          <mxGeometry width="30" height="30" as="geometry" />
        </mxCell>
        <mxCell id="9ICHdwUlCjqRGrEa40F--182" value="" style="shape=partialRectangle;connectable=0;fillColor=none;top=0;left=0;bottom=0;right=0;align=left;spacingLeft=6;overflow=hidden;" vertex="1" parent="9ICHdwUlCjqRGrEa40F--180">
          <mxGeometry x="30" width="170" height="30" as="geometry" />
        </mxCell>
        <mxCell id="9ICHdwUlCjqRGrEa40F--183" value="" style="shape=partialRectangle;collapsible=0;dropTarget=0;pointerEvents=0;fillColor=none;top=0;left=0;bottom=0;right=0;points=[[0,0.5],[1,0.5]];portConstraint=eastwest;" vertex="1" parent="9ICHdwUlCjqRGrEa40F--170">
          <mxGeometry y="120" width="200" height="30" as="geometry" />
        </mxCell>
        <mxCell id="9ICHdwUlCjqRGrEa40F--184" value="" style="shape=partialRectangle;connectable=0;fillColor=none;top=0;left=0;bottom=0;right=0;editable=1;overflow=hidden;" vertex="1" parent="9ICHdwUlCjqRGrEa40F--183">
          <mxGeometry width="30" height="30" as="geometry" />
        </mxCell>
        <mxCell id="9ICHdwUlCjqRGrEa40F--185" value="" style="shape=partialRectangle;connectable=0;fillColor=none;top=0;left=0;bottom=0;right=0;align=left;spacingLeft=6;overflow=hidden;" vertex="1" parent="9ICHdwUlCjqRGrEa40F--183">
          <mxGeometry x="30" width="170" height="30" as="geometry" />
        </mxCell>
        <mxCell id="9ICHdwUlCjqRGrEa40F--186" value="" style="edgeStyle=entityRelationEdgeStyle;fontSize=12;html=1;endArrow=ERzeroToMany;startArrow=ERzeroToOne;exitX=1.005;exitY=0.171;exitDx=0;exitDy=0;exitPerimeter=0;entryX=0.015;entryY=-0.1;entryDx=0;entryDy=0;entryPerimeter=0;" edge="1" parent="1" source="9ICHdwUlCjqRGrEa40F--167" target="9ICHdwUlCjqRGrEa40F--177">
          <mxGeometry width="100" height="100" relative="1" as="geometry">
            <mxPoint x="380" y="110" as="sourcePoint" />
            <mxPoint x="540" as="targetPoint" />
          </mxGeometry>
        </mxCell>
        <mxCell id="9ICHdwUlCjqRGrEa40F--187" value="Логический&amp;nbsp; уровень" style="text;html=1;strokeColor=#d79b00;fillColor=#ffe6cc;align=center;verticalAlign=middle;whiteSpace=wrap;rounded=0;" vertex="1" parent="1">
          <mxGeometry x="70" y="-1120" width="190" height="20" as="geometry" />
        </mxCell>
        <mxCell id="9ICHdwUlCjqRGrEa40F--250" value="Employee" style="shape=table;startSize=30;container=1;collapsible=1;childLayout=tableLayout;fixedRows=1;rowLines=0;fontStyle=1;align=center;resizeLast=1;" vertex="1" parent="1">
          <mxGeometry x="90" y="-734.5" width="210" height="150" as="geometry" />
        </mxCell>
        <mxCell id="9ICHdwUlCjqRGrEa40F--251" value="" style="shape=partialRectangle;collapsible=0;dropTarget=0;pointerEvents=0;fillColor=none;top=0;left=0;bottom=1;right=0;points=[[0,0.5],[1,0.5]];portConstraint=eastwest;" vertex="1" parent="9ICHdwUlCjqRGrEa40F--250">
          <mxGeometry y="30" width="210" height="30" as="geometry" />
        </mxCell>
        <mxCell id="9ICHdwUlCjqRGrEa40F--252" value="PK" style="shape=partialRectangle;connectable=0;fillColor=none;top=0;left=0;bottom=0;right=0;fontStyle=1;overflow=hidden;" vertex="1" parent="9ICHdwUlCjqRGrEa40F--251">
          <mxGeometry width="30" height="30" as="geometry" />
        </mxCell>
        <mxCell id="9ICHdwUlCjqRGrEa40F--253" value="EmployeeID" style="shape=partialRectangle;connectable=0;fillColor=none;top=0;left=0;bottom=0;right=0;align=left;spacingLeft=6;fontStyle=5;overflow=hidden;" vertex="1" parent="9ICHdwUlCjqRGrEa40F--251">
          <mxGeometry x="30" width="180" height="30" as="geometry" />
        </mxCell>
        <mxCell id="9ICHdwUlCjqRGrEa40F--254" value="" style="shape=partialRectangle;collapsible=0;dropTarget=0;pointerEvents=0;fillColor=none;top=0;left=0;bottom=0;right=0;points=[[0,0.5],[1,0.5]];portConstraint=eastwest;" vertex="1" parent="9ICHdwUlCjqRGrEa40F--250">
          <mxGeometry y="60" width="210" height="30" as="geometry" />
        </mxCell>
        <mxCell id="9ICHdwUlCjqRGrEa40F--255" value="" style="shape=partialRectangle;connectable=0;fillColor=none;top=0;left=0;bottom=0;right=0;editable=1;overflow=hidden;" vertex="1" parent="9ICHdwUlCjqRGrEa40F--254">
          <mxGeometry width="30" height="30" as="geometry" />
        </mxCell>
        <mxCell id="9ICHdwUlCjqRGrEa40F--256" value="EmployeeName" style="shape=partialRectangle;connectable=0;fillColor=none;top=0;left=0;bottom=0;right=0;align=left;spacingLeft=6;overflow=hidden;" vertex="1" parent="9ICHdwUlCjqRGrEa40F--254">
          <mxGeometry x="30" width="180" height="30" as="geometry" />
        </mxCell>
        <mxCell id="9ICHdwUlCjqRGrEa40F--257" value="" style="shape=partialRectangle;collapsible=0;dropTarget=0;pointerEvents=0;fillColor=none;top=0;left=0;bottom=0;right=0;points=[[0,0.5],[1,0.5]];portConstraint=eastwest;" vertex="1" parent="9ICHdwUlCjqRGrEa40F--250">
          <mxGeometry y="90" width="210" height="30" as="geometry" />
        </mxCell>
        <mxCell id="9ICHdwUlCjqRGrEa40F--258" value="" style="shape=partialRectangle;connectable=0;fillColor=none;top=0;left=0;bottom=0;right=0;editable=1;overflow=hidden;" vertex="1" parent="9ICHdwUlCjqRGrEa40F--257">
          <mxGeometry width="30" height="30" as="geometry" />
        </mxCell>
        <mxCell id="9ICHdwUlCjqRGrEa40F--259" value="Position1" style="shape=partialRectangle;connectable=0;fillColor=none;top=0;left=0;bottom=0;right=0;align=left;spacingLeft=6;overflow=hidden;" vertex="1" parent="9ICHdwUlCjqRGrEa40F--257">
          <mxGeometry x="30" width="180" height="30" as="geometry" />
        </mxCell>
        <mxCell id="9ICHdwUlCjqRGrEa40F--260" value="" style="shape=partialRectangle;collapsible=0;dropTarget=0;pointerEvents=0;fillColor=none;top=0;left=0;bottom=0;right=0;points=[[0,0.5],[1,0.5]];portConstraint=eastwest;" vertex="1" parent="9ICHdwUlCjqRGrEa40F--250">
          <mxGeometry y="120" width="210" height="20" as="geometry" />
        </mxCell>
        <mxCell id="9ICHdwUlCjqRGrEa40F--261" value="" style="shape=partialRectangle;connectable=0;fillColor=none;top=0;left=0;bottom=0;right=0;editable=1;overflow=hidden;" vertex="1" parent="9ICHdwUlCjqRGrEa40F--260">
          <mxGeometry width="30" height="20" as="geometry" />
        </mxCell>
        <mxCell id="9ICHdwUlCjqRGrEa40F--262" value="" style="shape=partialRectangle;connectable=0;fillColor=none;top=0;left=0;bottom=0;right=0;align=left;spacingLeft=6;overflow=hidden;" vertex="1" parent="9ICHdwUlCjqRGrEa40F--260">
          <mxGeometry x="30" width="180" height="20" as="geometry" />
        </mxCell>
        <mxCell id="9ICHdwUlCjqRGrEa40F--263" value="Tasks" style="shape=table;startSize=30;container=1;collapsible=1;childLayout=tableLayout;fixedRows=1;rowLines=0;fontStyle=1;align=center;resizeLast=1;" vertex="1" parent="1">
          <mxGeometry x="420" y="-774" width="200" height="190" as="geometry" />
        </mxCell>
        <mxCell id="9ICHdwUlCjqRGrEa40F--264" value="" style="shape=partialRectangle;collapsible=0;dropTarget=0;pointerEvents=0;fillColor=none;top=0;left=0;bottom=1;right=0;points=[[0,0.5],[1,0.5]];portConstraint=eastwest;" vertex="1" parent="9ICHdwUlCjqRGrEa40F--263">
          <mxGeometry y="30" width="200" height="30" as="geometry" />
        </mxCell>
        <mxCell id="9ICHdwUlCjqRGrEa40F--265" value="PK" style="shape=partialRectangle;connectable=0;fillColor=none;top=0;left=0;bottom=0;right=0;fontStyle=1;overflow=hidden;" vertex="1" parent="9ICHdwUlCjqRGrEa40F--264">
          <mxGeometry width="30" height="30" as="geometry" />
        </mxCell>
        <mxCell id="9ICHdwUlCjqRGrEa40F--266" value="TaskID" style="shape=partialRectangle;connectable=0;fillColor=none;top=0;left=0;bottom=0;right=0;align=left;spacingLeft=6;fontStyle=5;overflow=hidden;" vertex="1" parent="9ICHdwUlCjqRGrEa40F--264">
          <mxGeometry x="30" width="170" height="30" as="geometry" />
        </mxCell>
        <mxCell id="9ICHdwUlCjqRGrEa40F--267" value="" style="shape=partialRectangle;collapsible=0;dropTarget=0;pointerEvents=0;fillColor=none;top=0;left=0;bottom=1;right=0;points=[[0,0.5],[1,0.5]];portConstraint=eastwest;" vertex="1" parent="9ICHdwUlCjqRGrEa40F--263">
          <mxGeometry y="60" width="200" height="30" as="geometry" />
        </mxCell>
        <mxCell id="9ICHdwUlCjqRGrEa40F--268" value="FK" style="shape=partialRectangle;connectable=0;fillColor=none;top=0;left=0;bottom=0;right=0;fontStyle=1;overflow=hidden;" vertex="1" parent="9ICHdwUlCjqRGrEa40F--267">
          <mxGeometry width="30" height="30" as="geometry" />
        </mxCell>
        <mxCell id="9ICHdwUlCjqRGrEa40F--269" value="EmployeeID" style="shape=partialRectangle;connectable=0;fillColor=none;top=0;left=0;bottom=0;right=0;align=left;spacingLeft=6;fontStyle=5;overflow=hidden;" vertex="1" parent="9ICHdwUlCjqRGrEa40F--267">
          <mxGeometry x="30" width="170" height="30" as="geometry" />
        </mxCell>
        <mxCell id="9ICHdwUlCjqRGrEa40F--270" value="" style="shape=partialRectangle;collapsible=0;dropTarget=0;pointerEvents=0;fillColor=none;top=0;left=0;bottom=0;right=0;points=[[0,0.5],[1,0.5]];portConstraint=eastwest;" vertex="1" parent="9ICHdwUlCjqRGrEa40F--263">
          <mxGeometry y="90" width="200" height="30" as="geometry" />
        </mxCell>
        <mxCell id="9ICHdwUlCjqRGrEa40F--271" value="" style="shape=partialRectangle;connectable=0;fillColor=none;top=0;left=0;bottom=0;right=0;editable=1;overflow=hidden;" vertex="1" parent="9ICHdwUlCjqRGrEa40F--270">
          <mxGeometry width="30" height="30" as="geometry" />
        </mxCell>
        <mxCell id="9ICHdwUlCjqRGrEa40F--272" value="ShortText" style="shape=partialRectangle;connectable=0;fillColor=none;top=0;left=0;bottom=0;right=0;align=left;spacingLeft=6;overflow=hidden;" vertex="1" parent="9ICHdwUlCjqRGrEa40F--270">
          <mxGeometry x="30" width="170" height="30" as="geometry" />
        </mxCell>
        <mxCell id="9ICHdwUlCjqRGrEa40F--273" value="" style="shape=partialRectangle;collapsible=0;dropTarget=0;pointerEvents=0;fillColor=none;top=0;left=0;bottom=0;right=0;points=[[0,0.5],[1,0.5]];portConstraint=eastwest;" vertex="1" parent="9ICHdwUlCjqRGrEa40F--263">
          <mxGeometry y="120" width="200" height="30" as="geometry" />
        </mxCell>
        <mxCell id="9ICHdwUlCjqRGrEa40F--274" value="" style="shape=partialRectangle;connectable=0;fillColor=none;top=0;left=0;bottom=0;right=0;editable=1;overflow=hidden;" vertex="1" parent="9ICHdwUlCjqRGrEa40F--273">
          <mxGeometry width="30" height="30" as="geometry" />
        </mxCell>
        <mxCell id="9ICHdwUlCjqRGrEa40F--275" value="Text" style="shape=partialRectangle;connectable=0;fillColor=none;top=0;left=0;bottom=0;right=0;align=left;spacingLeft=6;overflow=hidden;" vertex="1" parent="9ICHdwUlCjqRGrEa40F--273">
          <mxGeometry x="30" width="170" height="30" as="geometry" />
        </mxCell>
        <mxCell id="9ICHdwUlCjqRGrEa40F--276" value="" style="shape=partialRectangle;collapsible=0;dropTarget=0;pointerEvents=0;fillColor=none;top=0;left=0;bottom=0;right=0;points=[[0,0.5],[1,0.5]];portConstraint=eastwest;" vertex="1" parent="9ICHdwUlCjqRGrEa40F--263">
          <mxGeometry y="150" width="200" height="30" as="geometry" />
        </mxCell>
        <mxCell id="9ICHdwUlCjqRGrEa40F--277" value="" style="shape=partialRectangle;connectable=0;fillColor=none;top=0;left=0;bottom=0;right=0;editable=1;overflow=hidden;" vertex="1" parent="9ICHdwUlCjqRGrEa40F--276">
          <mxGeometry width="30" height="30" as="geometry" />
        </mxCell>
        <mxCell id="9ICHdwUlCjqRGrEa40F--278" value="Date" style="shape=partialRectangle;connectable=0;fillColor=none;top=0;left=0;bottom=0;right=0;align=left;spacingLeft=6;overflow=hidden;" vertex="1" parent="9ICHdwUlCjqRGrEa40F--276">
          <mxGeometry x="30" width="170" height="30" as="geometry" />
        </mxCell>
        <mxCell id="9ICHdwUlCjqRGrEa40F--279" value="" style="edgeStyle=entityRelationEdgeStyle;fontSize=12;html=1;endArrow=ERzeroToMany;startArrow=ERzeroToOne;exitX=1.005;exitY=0.171;exitDx=0;exitDy=0;exitPerimeter=0;entryX=0.015;entryY=-0.1;entryDx=0;entryDy=0;entryPerimeter=0;" edge="1" parent="1" source="9ICHdwUlCjqRGrEa40F--260" target="9ICHdwUlCjqRGrEa40F--270">
          <mxGeometry width="100" height="100" relative="1" as="geometry">
            <mxPoint x="360" y="-630" as="sourcePoint" />
            <mxPoint x="520" y="-740" as="targetPoint" />
          </mxGeometry>
        </mxCell>
        <mxCell id="9ICHdwUlCjqRGrEa40F--280" value="Логический&amp;nbsp; уровень" style="text;html=1;strokeColor=#d79b00;fillColor=#ffe6cc;align=center;verticalAlign=middle;whiteSpace=wrap;rounded=0;" vertex="1" parent="1">
          <mxGeometry x="50" y="-800" width="190" height="20" as="geometry" />
        </mxCell>
        <mxCell id="9ICHdwUlCjqRGrEa40F--281" value="employee" style="shape=table;startSize=30;container=1;collapsible=1;childLayout=tableLayout;fixedRows=1;rowLines=0;fontStyle=1;align=center;resizeLast=1;" vertex="1" parent="1">
          <mxGeometry x="90" y="-460" width="210" height="150" as="geometry" />
        </mxCell>
        <mxCell id="9ICHdwUlCjqRGrEa40F--282" value="" style="shape=partialRectangle;collapsible=0;dropTarget=0;pointerEvents=0;fillColor=none;top=0;left=0;bottom=1;right=0;points=[[0,0.5],[1,0.5]];portConstraint=eastwest;" vertex="1" parent="9ICHdwUlCjqRGrEa40F--281">
          <mxGeometry y="30" width="210" height="30" as="geometry" />
        </mxCell>
        <mxCell id="9ICHdwUlCjqRGrEa40F--283" value="PK" style="shape=partialRectangle;connectable=0;fillColor=none;top=0;left=0;bottom=0;right=0;fontStyle=1;overflow=hidden;" vertex="1" parent="9ICHdwUlCjqRGrEa40F--282">
          <mxGeometry width="30" height="30" as="geometry" />
        </mxCell>
        <mxCell id="9ICHdwUlCjqRGrEa40F--284" value="EmployeeID: nvarchar(10)" style="shape=partialRectangle;connectable=0;fillColor=none;top=0;left=0;bottom=0;right=0;align=left;spacingLeft=6;fontStyle=5;overflow=hidden;" vertex="1" parent="9ICHdwUlCjqRGrEa40F--282">
          <mxGeometry x="30" width="180" height="30" as="geometry" />
        </mxCell>
        <mxCell id="9ICHdwUlCjqRGrEa40F--285" value="" style="shape=partialRectangle;collapsible=0;dropTarget=0;pointerEvents=0;fillColor=none;top=0;left=0;bottom=0;right=0;points=[[0,0.5],[1,0.5]];portConstraint=eastwest;" vertex="1" parent="9ICHdwUlCjqRGrEa40F--281">
          <mxGeometry y="60" width="210" height="30" as="geometry" />
        </mxCell>
        <mxCell id="9ICHdwUlCjqRGrEa40F--286" value="" style="shape=partialRectangle;connectable=0;fillColor=none;top=0;left=0;bottom=0;right=0;editable=1;overflow=hidden;" vertex="1" parent="9ICHdwUlCjqRGrEa40F--285">
          <mxGeometry width="30" height="30" as="geometry" />
        </mxCell>
        <mxCell id="9ICHdwUlCjqRGrEa40F--287" value="EmployeeName: nvarchar(50)" style="shape=partialRectangle;connectable=0;fillColor=none;top=0;left=0;bottom=0;right=0;align=left;spacingLeft=6;overflow=hidden;" vertex="1" parent="9ICHdwUlCjqRGrEa40F--285">
          <mxGeometry x="30" width="180" height="30" as="geometry" />
        </mxCell>
        <mxCell id="9ICHdwUlCjqRGrEa40F--288" value="" style="shape=partialRectangle;collapsible=0;dropTarget=0;pointerEvents=0;fillColor=none;top=0;left=0;bottom=0;right=0;points=[[0,0.5],[1,0.5]];portConstraint=eastwest;" vertex="1" parent="9ICHdwUlCjqRGrEa40F--281">
          <mxGeometry y="90" width="210" height="30" as="geometry" />
        </mxCell>
        <mxCell id="9ICHdwUlCjqRGrEa40F--289" value="" style="shape=partialRectangle;connectable=0;fillColor=none;top=0;left=0;bottom=0;right=0;editable=1;overflow=hidden;" vertex="1" parent="9ICHdwUlCjqRGrEa40F--288">
          <mxGeometry width="30" height="30" as="geometry" />
        </mxCell>
        <mxCell id="9ICHdwUlCjqRGrEa40F--290" value="Position1: nvarchar(20)" style="shape=partialRectangle;connectable=0;fillColor=none;top=0;left=0;bottom=0;right=0;align=left;spacingLeft=6;overflow=hidden;" vertex="1" parent="9ICHdwUlCjqRGrEa40F--288">
          <mxGeometry x="30" width="180" height="30" as="geometry" />
        </mxCell>
        <mxCell id="9ICHdwUlCjqRGrEa40F--291" value="" style="shape=partialRectangle;collapsible=0;dropTarget=0;pointerEvents=0;fillColor=none;top=0;left=0;bottom=0;right=0;points=[[0,0.5],[1,0.5]];portConstraint=eastwest;" vertex="1" parent="9ICHdwUlCjqRGrEa40F--281">
          <mxGeometry y="120" width="210" height="20" as="geometry" />
        </mxCell>
        <mxCell id="9ICHdwUlCjqRGrEa40F--292" value="" style="shape=partialRectangle;connectable=0;fillColor=none;top=0;left=0;bottom=0;right=0;editable=1;overflow=hidden;" vertex="1" parent="9ICHdwUlCjqRGrEa40F--291">
          <mxGeometry width="30" height="20" as="geometry" />
        </mxCell>
        <mxCell id="9ICHdwUlCjqRGrEa40F--293" value="" style="shape=partialRectangle;connectable=0;fillColor=none;top=0;left=0;bottom=0;right=0;align=left;spacingLeft=6;overflow=hidden;" vertex="1" parent="9ICHdwUlCjqRGrEa40F--291">
          <mxGeometry x="30" width="180" height="20" as="geometry" />
        </mxCell>
        <mxCell id="9ICHdwUlCjqRGrEa40F--294" value="tasks" style="shape=table;startSize=30;container=1;collapsible=1;childLayout=tableLayout;fixedRows=1;rowLines=0;fontStyle=1;align=center;resizeLast=1;" vertex="1" parent="1">
          <mxGeometry x="440" y="-490" width="200" height="190" as="geometry" />
        </mxCell>
        <mxCell id="9ICHdwUlCjqRGrEa40F--295" value="" style="shape=partialRectangle;collapsible=0;dropTarget=0;pointerEvents=0;fillColor=none;top=0;left=0;bottom=1;right=0;points=[[0,0.5],[1,0.5]];portConstraint=eastwest;" vertex="1" parent="9ICHdwUlCjqRGrEa40F--294">
          <mxGeometry y="30" width="200" height="30" as="geometry" />
        </mxCell>
        <mxCell id="9ICHdwUlCjqRGrEa40F--296" value="PK" style="shape=partialRectangle;connectable=0;fillColor=none;top=0;left=0;bottom=0;right=0;fontStyle=1;overflow=hidden;" vertex="1" parent="9ICHdwUlCjqRGrEa40F--295">
          <mxGeometry width="30" height="30" as="geometry" />
        </mxCell>
        <mxCell id="9ICHdwUlCjqRGrEa40F--297" value="TaskID: int(10)" style="shape=partialRectangle;connectable=0;fillColor=none;top=0;left=0;bottom=0;right=0;align=left;spacingLeft=6;fontStyle=5;overflow=hidden;" vertex="1" parent="9ICHdwUlCjqRGrEa40F--295">
          <mxGeometry x="30" width="170" height="30" as="geometry" />
        </mxCell>
        <mxCell id="9ICHdwUlCjqRGrEa40F--298" value="" style="shape=partialRectangle;collapsible=0;dropTarget=0;pointerEvents=0;fillColor=none;top=0;left=0;bottom=1;right=0;points=[[0,0.5],[1,0.5]];portConstraint=eastwest;" vertex="1" parent="9ICHdwUlCjqRGrEa40F--294">
          <mxGeometry y="60" width="200" height="30" as="geometry" />
        </mxCell>
        <mxCell id="9ICHdwUlCjqRGrEa40F--299" value="FK" style="shape=partialRectangle;connectable=0;fillColor=none;top=0;left=0;bottom=0;right=0;fontStyle=1;overflow=hidden;" vertex="1" parent="9ICHdwUlCjqRGrEa40F--298">
          <mxGeometry width="30" height="30" as="geometry" />
        </mxCell>
        <mxCell id="9ICHdwUlCjqRGrEa40F--300" value="EmployeeID: nvarchar(10)" style="shape=partialRectangle;connectable=0;fillColor=none;top=0;left=0;bottom=0;right=0;align=left;spacingLeft=6;fontStyle=5;overflow=hidden;" vertex="1" parent="9ICHdwUlCjqRGrEa40F--298">
          <mxGeometry x="30" width="170" height="30" as="geometry" />
        </mxCell>
        <mxCell id="9ICHdwUlCjqRGrEa40F--301" value="" style="shape=partialRectangle;collapsible=0;dropTarget=0;pointerEvents=0;fillColor=none;top=0;left=0;bottom=0;right=0;points=[[0,0.5],[1,0.5]];portConstraint=eastwest;" vertex="1" parent="9ICHdwUlCjqRGrEa40F--294">
          <mxGeometry y="90" width="200" height="30" as="geometry" />
        </mxCell>
        <mxCell id="9ICHdwUlCjqRGrEa40F--302" value="" style="shape=partialRectangle;connectable=0;fillColor=none;top=0;left=0;bottom=0;right=0;editable=1;overflow=hidden;" vertex="1" parent="9ICHdwUlCjqRGrEa40F--301">
          <mxGeometry width="30" height="30" as="geometry" />
        </mxCell>
        <mxCell id="9ICHdwUlCjqRGrEa40F--303" value="ShortText: nvarchar(50)" style="shape=partialRectangle;connectable=0;fillColor=none;top=0;left=0;bottom=0;right=0;align=left;spacingLeft=6;overflow=hidden;" vertex="1" parent="9ICHdwUlCjqRGrEa40F--301">
          <mxGeometry x="30" width="170" height="30" as="geometry" />
        </mxCell>
        <mxCell id="9ICHdwUlCjqRGrEa40F--304" value="" style="shape=partialRectangle;collapsible=0;dropTarget=0;pointerEvents=0;fillColor=none;top=0;left=0;bottom=0;right=0;points=[[0,0.5],[1,0.5]];portConstraint=eastwest;" vertex="1" parent="9ICHdwUlCjqRGrEa40F--294">
          <mxGeometry y="120" width="200" height="30" as="geometry" />
        </mxCell>
        <mxCell id="9ICHdwUlCjqRGrEa40F--305" value="" style="shape=partialRectangle;connectable=0;fillColor=none;top=0;left=0;bottom=0;right=0;editable=1;overflow=hidden;" vertex="1" parent="9ICHdwUlCjqRGrEa40F--304">
          <mxGeometry width="30" height="30" as="geometry" />
        </mxCell>
        <mxCell id="9ICHdwUlCjqRGrEa40F--306" value="Text: nvarchar(200)" style="shape=partialRectangle;connectable=0;fillColor=none;top=0;left=0;bottom=0;right=0;align=left;spacingLeft=6;overflow=hidden;" vertex="1" parent="9ICHdwUlCjqRGrEa40F--304">
          <mxGeometry x="30" width="170" height="30" as="geometry" />
        </mxCell>
        <mxCell id="9ICHdwUlCjqRGrEa40F--307" value="" style="shape=partialRectangle;collapsible=0;dropTarget=0;pointerEvents=0;fillColor=none;top=0;left=0;bottom=0;right=0;points=[[0,0.5],[1,0.5]];portConstraint=eastwest;" vertex="1" parent="9ICHdwUlCjqRGrEa40F--294">
          <mxGeometry y="150" width="200" height="30" as="geometry" />
        </mxCell>
        <mxCell id="9ICHdwUlCjqRGrEa40F--308" value="" style="shape=partialRectangle;connectable=0;fillColor=none;top=0;left=0;bottom=0;right=0;editable=1;overflow=hidden;" vertex="1" parent="9ICHdwUlCjqRGrEa40F--307">
          <mxGeometry width="30" height="30" as="geometry" />
        </mxCell>
        <mxCell id="9ICHdwUlCjqRGrEa40F--309" value="Date: datetime(20)" style="shape=partialRectangle;connectable=0;fillColor=none;top=0;left=0;bottom=0;right=0;align=left;spacingLeft=6;overflow=hidden;" vertex="1" parent="9ICHdwUlCjqRGrEa40F--307">
          <mxGeometry x="30" width="170" height="30" as="geometry" />
        </mxCell>
        <mxCell id="9ICHdwUlCjqRGrEa40F--310" value="" style="edgeStyle=entityRelationEdgeStyle;fontSize=12;html=1;endArrow=ERzeroToMany;startArrow=ERzeroToOne;exitX=1.005;exitY=0.171;exitDx=0;exitDy=0;exitPerimeter=0;entryX=0.015;entryY=-0.1;entryDx=0;entryDy=0;entryPerimeter=0;" edge="1" parent="1" source="9ICHdwUlCjqRGrEa40F--291" target="9ICHdwUlCjqRGrEa40F--301">
          <mxGeometry width="100" height="100" relative="1" as="geometry">
            <mxPoint x="310" y="-370" as="sourcePoint" />
            <mxPoint x="470" y="-480" as="targetPoint" />
          </mxGeometry>
        </mxCell>
      </root>
    </mxGraphModel>
  </diagram>
</mxfile>
